# xmcd CD database file
#
# Track frame offsets:
#	150
#	40868
#	75258
#	85553
#	170605
#	207743
#	229183
#	255125
#
# Disc length: 4251 seconds
#
# Revision: 1
# Processed by: cddbd v1.5.1PL2 Copyright (c) Steve Scherf et al.
# Submitted via: CDex 1.51
#
DISCID=55109908
DTITLE=Jacky Terrasson - What's New
DYEAR=1992
DGENRE=Jazz
TTITLE0=What's New
TTITLE1=Till Then
TTITLE2=O Grande Amore
TTITLE3=Caravan
TTITLE4=Lost
TTITLE5=If I Should Lose You
TTITLE6=Once I Loved
TTITLE7=What's New
EXTD=YEAR: 1992
EXTT0=
EXTT1=
EXTT2=
EXTT3=
EXTT4=
EXTT5=
EXTT6=
EXTT7=
PLAYORDER=
